<mxfile host="Electron" agent="Mozilla/5.0 (Windows NT 10.0; Win64; x64) AppleWebKit/537.36 (KHTML, like Gecko) draw.io/28.0.6 Chrome/138.0.7204.100 Electron/37.2.3 Safari/537.36" version="28.0.6">
  <diagram name="Page-1" id="tbT3Rx_tikY6t1Ts9GRD">
    <mxGraphModel dx="1158" dy="1796" grid="1" gridSize="10" guides="1" tooltips="1" connect="1" arrows="1" fold="1" page="1" pageScale="1" pageWidth="850" pageHeight="1100" math="0" shadow="0">
      <root>
        <mxCell id="0" />
        <mxCell id="1" parent="0" />
        <mxCell id="xrcFdg_S0BTv2oC5ESt1-93" value="" style="image;aspect=fixed;html=1;points=[];align=center;fontSize=12;image=img/lib/azure2/databases/Azure_Database_PostgreSQL_Server.svg;" vertex="1" parent="1">
          <mxGeometry x="845" y="803" width="60" height="80" as="geometry" />
        </mxCell>
        <mxCell id="xrcFdg_S0BTv2oC5ESt1-94" value="" style="image;aspect=fixed;html=1;points=[];align=center;fontSize=12;image=img/lib/azure2/databases/Azure_Database_PostgreSQL_Server.svg;" vertex="1" parent="1">
          <mxGeometry x="825" y="776.5" width="60" height="80" as="geometry" />
        </mxCell>
        <mxCell id="xrcFdg_S0BTv2oC5ESt1-92" value="" style="image;aspect=fixed;html=1;points=[];align=center;fontSize=12;image=img/lib/azure2/databases/Azure_Database_PostgreSQL_Server.svg;" vertex="1" parent="1">
          <mxGeometry x="880" y="26.5" width="60" height="80" as="geometry" />
        </mxCell>
        <mxCell id="xrcFdg_S0BTv2oC5ESt1-91" value="" style="image;aspect=fixed;html=1;points=[];align=center;fontSize=12;image=img/lib/azure2/databases/Azure_Database_PostgreSQL_Server.svg;" vertex="1" parent="1">
          <mxGeometry x="860" width="60" height="80" as="geometry" />
        </mxCell>
        <mxCell id="xrcFdg_S0BTv2oC5ESt1-88" value="Auto Scaling group &amp;amp; LB" style="points=[[0,0],[0.25,0],[0.5,0],[0.75,0],[1,0],[1,0.25],[1,0.5],[1,0.75],[1,1],[0.75,1],[0.5,1],[0.25,1],[0,1],[0,0.75],[0,0.5],[0,0.25]];outlineConnect=0;gradientColor=none;html=1;whiteSpace=wrap;fontSize=12;fontStyle=0;container=1;pointerEvents=0;collapsible=0;recursiveResize=0;shape=mxgraph.aws4.groupCenter;grIcon=mxgraph.aws4.group_auto_scaling_group;grStroke=1;strokeColor=#D86613;fillColor=none;verticalAlign=top;align=center;fontColor=#D86613;dashed=1;spacingTop=25;" vertex="1" parent="1">
          <mxGeometry x="290" y="552" width="141" height="141" as="geometry" />
        </mxCell>
        <mxCell id="xrcFdg_S0BTv2oC5ESt1-83" value="Auto Scaling group &amp;amp; LB" style="points=[[0,0],[0.25,0],[0.5,0],[0.75,0],[1,0],[1,0.25],[1,0.5],[1,0.75],[1,1],[0.75,1],[0.5,1],[0.25,1],[0,1],[0,0.75],[0,0.5],[0,0.25]];outlineConnect=0;gradientColor=none;html=1;whiteSpace=wrap;fontSize=12;fontStyle=0;container=1;pointerEvents=0;collapsible=0;recursiveResize=0;shape=mxgraph.aws4.groupCenter;grIcon=mxgraph.aws4.group_auto_scaling_group;grStroke=1;strokeColor=#D86613;fillColor=none;verticalAlign=top;align=center;fontColor=#D86613;dashed=1;spacingTop=25;" vertex="1" parent="1">
          <mxGeometry x="535" y="706" width="162" height="162" as="geometry" />
        </mxCell>
        <mxCell id="xrcFdg_S0BTv2oC5ESt1-81" value="Auto Scaling group &amp;amp; LB" style="points=[[0,0],[0.25,0],[0.5,0],[0.75,0],[1,0],[1,0.25],[1,0.5],[1,0.75],[1,1],[0.75,1],[0.5,1],[0.25,1],[0,1],[0,0.75],[0,0.5],[0,0.25]];outlineConnect=0;gradientColor=none;html=1;whiteSpace=wrap;fontSize=12;fontStyle=0;container=1;pointerEvents=0;collapsible=0;recursiveResize=0;shape=mxgraph.aws4.groupCenter;grIcon=mxgraph.aws4.group_auto_scaling_group;grStroke=1;strokeColor=#D86613;fillColor=none;verticalAlign=top;align=center;fontColor=#D86613;dashed=1;spacingTop=25;" vertex="1" parent="1">
          <mxGeometry x="535" y="537" width="162" height="162" as="geometry" />
        </mxCell>
        <mxCell id="xrcFdg_S0BTv2oC5ESt1-5" style="edgeStyle=orthogonalEdgeStyle;rounded=0;orthogonalLoop=1;jettySize=auto;html=1;exitX=1;exitY=0.71;exitDx=0;exitDy=0;exitPerimeter=0;entryX=0;entryY=0.5;entryDx=0;entryDy=0;" edge="1" parent="1" source="xrcFdg_S0BTv2oC5ESt1-1" target="xrcFdg_S0BTv2oC5ESt1-3">
          <mxGeometry relative="1" as="geometry" />
        </mxCell>
        <mxCell id="xrcFdg_S0BTv2oC5ESt1-1" value="Client App" style="points=[[0.35,0,0],[0.98,0.51,0],[1,0.71,0],[0.67,1,0],[0,0.795,0],[0,0.65,0]];verticalLabelPosition=bottom;sketch=0;html=1;verticalAlign=top;aspect=fixed;align=center;pointerEvents=1;shape=mxgraph.cisco19.user;fillColor=#005073;strokeColor=none;" vertex="1" parent="1">
          <mxGeometry x="68" y="679" width="70" height="70" as="geometry" />
        </mxCell>
        <mxCell id="xrcFdg_S0BTv2oC5ESt1-4" style="edgeStyle=orthogonalEdgeStyle;rounded=0;orthogonalLoop=1;jettySize=auto;html=1;exitX=1;exitY=0.71;exitDx=0;exitDy=0;exitPerimeter=0;entryX=0;entryY=0.5;entryDx=0;entryDy=0;" edge="1" parent="1" source="xrcFdg_S0BTv2oC5ESt1-2" target="xrcFdg_S0BTv2oC5ESt1-3">
          <mxGeometry relative="1" as="geometry" />
        </mxCell>
        <mxCell id="xrcFdg_S0BTv2oC5ESt1-2" value="Admin App" style="points=[[0.35,0,0],[0.98,0.51,0],[1,0.71,0],[0.67,1,0],[0,0.795,0],[0,0.65,0]];verticalLabelPosition=bottom;sketch=0;html=1;verticalAlign=top;aspect=fixed;align=center;pointerEvents=1;shape=mxgraph.cisco19.user;fillColor=#005073;strokeColor=none;" vertex="1" parent="1">
          <mxGeometry x="68" y="509" width="70" height="70" as="geometry" />
        </mxCell>
        <mxCell id="xrcFdg_S0BTv2oC5ESt1-23" style="edgeStyle=orthogonalEdgeStyle;rounded=0;orthogonalLoop=1;jettySize=auto;html=1;exitX=1;exitY=0.5;exitDx=0;exitDy=0;" edge="1" parent="1" source="xrcFdg_S0BTv2oC5ESt1-3" target="xrcFdg_S0BTv2oC5ESt1-9">
          <mxGeometry relative="1" as="geometry" />
        </mxCell>
        <mxCell id="xrcFdg_S0BTv2oC5ESt1-53" value="Routes to" style="edgeLabel;html=1;align=center;verticalAlign=middle;resizable=0;points=[];" vertex="1" connectable="0" parent="xrcFdg_S0BTv2oC5ESt1-23">
          <mxGeometry x="0.1267" relative="1" as="geometry">
            <mxPoint as="offset" />
          </mxGeometry>
        </mxCell>
        <mxCell id="xrcFdg_S0BTv2oC5ESt1-3" value="API Gateway" style="sketch=0;html=1;verticalAlign=top;labelPosition=center;verticalLabelPosition=bottom;align=center;spacingTop=-6;fontSize=11;fontStyle=1;fontColor=#999999;shape=image;aspect=fixed;imageAspect=0;image=data:image/svg+xml,PHN2ZyB4bWxucz0iaHR0cDovL3d3dy53My5vcmcvMjAwMC9zdmciIGhlaWdodD0iMzY3LjgxODMyODg1NzQyMTkiIHZpZXdCb3g9IjcuMTA1NDI3MzU3NjAxMDAyZS0xNSAwIDM2Ni40MTAxODY3Njc1NzgxIDM2Ny44MTgzMjg4NTc0MjE5IiBwcmVzZXJ2ZUFzcGVjdFJhdGlvPSJ4TWlkWU1pZCBtZWV0IiB3aWR0aD0iMzY2LjQxMDE5Njc2NzU3OTEiIHZlcnNpb249IjEuMSIgaWQ9InN2Zzk4NyIgem9vbUFuZFBhbj0ibWFnbmlmeSI+JiN4YTsgIDxwYXRoIGQ9Im0gNDguMjUxOTYsMTExLjUzOTA2IGMgLTcuNjE4NjQsMmUtNCAtMTMuNzk0NzIsNi4xNzYyOCAtMTMuNzk0OTMsMTMuNzk0OTIgMi4xZS00LDcuNjE4NjQgNi4xNzYyOSwxMy43OTQ3MiAxMy43OTQ5MywxMy43OTQ5MiBoIDE0NS4xNDY5MiB2IC0yNy41ODk4NCB6IG0gMjM4LjYwODU5LDU3LjQ1MTE3IGggNjUuNzU0NjkgYyA3LjYxODY0LC0yLjFlLTQgMTMuNzk0NzEsLTYuMTc2MjggMTMuNzk0OTIsLTEzLjc5NDkyIC0yLjFlLTQsLTcuNjE4NjQgLTYuMTc2MjgsLTEzLjc5NDcxIC0xMy43OTQ5MiwtMTMuNzk0OTIgSCAyODQuODUwNiBaIE0gMTMuNzk0OTIsMTcwLjk3NDYxIEMgNi4xNzYyODAxLDE3MC45NzQ4MiAyLjEwMDkxOWUtNCwxNzcuMTUwODkgOS4xODk5MjFlLTgsMTg0Ljc2OTUzIC04LjY5OTA4MWUtNCwxOTIuMzg4OTMgNi4xNzU1MjAxLDE5OC41NjYxOSAxMy43OTQ5MiwxOTguNTY2NCBIIDE5My4zOTg4OCBWIDE3MC45NzQ2MSBaIE0gMjg0LjMwNzgsMjI3LjU2NjQgaCA2OC4zMDc0NCBjIDcuNjE4NjQsLTIuMWUtNCAxMy43OTQ3MSwtNi4xNzYyOCAxMy43OTQ5MiwtMTMuNzk0OTIgLTIuMWUtNCwtNy42MTg2NCAtNi4xNzYyOCwtMTMuNzk0NzEgLTEzLjc5NDkyLC0xMy43OTQ5MiBoIC02NS45MjE3OCB6IG0gLTIzNi4wNTU4NCwxLjY5NzI3IGMgLTcuNjE4NjQsMmUtNCAtMTMuNzk0NzIsNi4xNzYyOCAtMTMuNzk0OTMsMTMuNzk0OTIgMi4xZS00LDcuNjE4NjQgNi4xNzYyOSwxMy43OTQ3MiAxMy43OTQ5MywxMy43OTQ5MiBIIDE5My4zOTg4OCBWIDIyOS4yNjM2NyBaIE0gMTg5LjUyMTQ5LDAgYyAtMjQuNTc0MTEsMCAtNDkuMTY3MzcsMjAuMDU1MDcgLTU5LjQzNzUsNzUuMzczMDQgaCAzMC41ODAwNyBjIDQuNjE2MzMsLTI0LjE2MjA2IDE1LjM0ODk2LC00Ny41MjE0OCAyNy44NTM1MiwtNDcuNTIxNDggMTIuMTU4OCwwIDM5LjQ1ODk4LDU3LjQ1MDQ0IDM5LjQ1ODk4LDE2MC40MTQwNiAwLDY5LjkxNTEzIC0xOS41NzgwOSwxNTIuMTE1MjQgLTQxLjE3MTg3LDE1Mi4xMTUyMyAtMTUuMjY4ODEsMmUtNSAtMjEuMjE2NjgsLTI4LjMzMzU2IC0yNS40NDMzNiwtNDYuNzE4NzQgbCAtMzAuNDE0MDYsLTAuMDY4NCBjIDQuMjIwNzQsMjAuNTQwODcgMTYuOTA3NjgsNzQuMjI0NiA1Ny43MTI4OSw3NC4yMjQ2IDUzLjQzNjcyLDAgNjguOTEyMTEsLTExMS45OTMwNSA2OC45MTIxMSwtMTgwLjQ2Mjg5IEMgMjU3LjU3MjI3LDkzLjgwMDc2IDIzNi41ODM0LDAgMTg5LjUyMTQ5LDAgWiIgc3R5bGU9ImNvbG9yOiMwMDAwMDA7b3BhY2l0eToxO2ZpbGw6IzQyODVmNDtmaWxsLW9wYWNpdHk6MTtzdHJva2UtbGluZWNhcDpyb3VuZDstaW5rc2NhcGUtc3Ryb2tlOm5vbmUiLz4mI3hhOzwvc3ZnPg==;" vertex="1" parent="1">
          <mxGeometry x="328" y="599" width="62" height="62" as="geometry" />
        </mxCell>
        <mxCell id="xrcFdg_S0BTv2oC5ESt1-31" style="edgeStyle=orthogonalEdgeStyle;rounded=0;orthogonalLoop=1;jettySize=auto;html=1;exitX=1;exitY=0.5;exitDx=0;exitDy=0;exitPerimeter=0;" edge="1" parent="1" source="xrcFdg_S0BTv2oC5ESt1-6" target="xrcFdg_S0BTv2oC5ESt1-15">
          <mxGeometry relative="1" as="geometry" />
        </mxCell>
        <mxCell id="xrcFdg_S0BTv2oC5ESt1-65" value="Reads / Writes" style="edgeLabel;html=1;align=center;verticalAlign=middle;resizable=0;points=[];" vertex="1" connectable="0" parent="xrcFdg_S0BTv2oC5ESt1-31">
          <mxGeometry x="-0.2007" y="2" relative="1" as="geometry">
            <mxPoint as="offset" />
          </mxGeometry>
        </mxCell>
        <mxCell id="xrcFdg_S0BTv2oC5ESt1-6" value="User Service" style="outlineConnect=0;dashed=0;verticalLabelPosition=bottom;verticalAlign=top;align=center;html=1;shape=mxgraph.aws3.ec2;fillColor=#F58534;gradientColor=none;" vertex="1" parent="1">
          <mxGeometry x="580" y="20" width="76.5" height="93" as="geometry" />
        </mxCell>
        <mxCell id="xrcFdg_S0BTv2oC5ESt1-7" value="Notification Service" style="outlineConnect=0;dashed=0;verticalLabelPosition=bottom;verticalAlign=top;align=center;html=1;shape=mxgraph.aws3.ec2;fillColor=#F58534;gradientColor=none;" vertex="1" parent="1">
          <mxGeometry x="580" y="210" width="76.5" height="93" as="geometry" />
        </mxCell>
        <mxCell id="xrcFdg_S0BTv2oC5ESt1-33" style="edgeStyle=orthogonalEdgeStyle;rounded=0;orthogonalLoop=1;jettySize=auto;html=1;exitX=1;exitY=0.5;exitDx=0;exitDy=0;exitPerimeter=0;" edge="1" parent="1" source="xrcFdg_S0BTv2oC5ESt1-8" target="xrcFdg_S0BTv2oC5ESt1-21">
          <mxGeometry relative="1" as="geometry" />
        </mxCell>
        <mxCell id="xrcFdg_S0BTv2oC5ESt1-63" value="Reads / Writes" style="edgeLabel;html=1;align=center;verticalAlign=middle;resizable=0;points=[];" vertex="1" connectable="0" parent="xrcFdg_S0BTv2oC5ESt1-33">
          <mxGeometry x="-0.1514" y="2" relative="1" as="geometry">
            <mxPoint as="offset" />
          </mxGeometry>
        </mxCell>
        <mxCell id="xrcFdg_S0BTv2oC5ESt1-85" style="edgeStyle=orthogonalEdgeStyle;rounded=0;orthogonalLoop=1;jettySize=auto;html=1;exitX=1;exitY=0.21;exitDx=0;exitDy=0;exitPerimeter=0;" edge="1" parent="1" source="xrcFdg_S0BTv2oC5ESt1-8" target="xrcFdg_S0BTv2oC5ESt1-66">
          <mxGeometry relative="1" as="geometry" />
        </mxCell>
        <mxCell id="xrcFdg_S0BTv2oC5ESt1-86" value="Read / Write" style="edgeLabel;html=1;align=center;verticalAlign=middle;resizable=0;points=[];" vertex="1" connectable="0" parent="xrcFdg_S0BTv2oC5ESt1-85">
          <mxGeometry x="0.11" y="3" relative="1" as="geometry">
            <mxPoint x="20" y="-9" as="offset" />
          </mxGeometry>
        </mxCell>
        <mxCell id="xrcFdg_S0BTv2oC5ESt1-8" value="Search Service" style="outlineConnect=0;dashed=0;verticalLabelPosition=bottom;verticalAlign=top;align=center;html=1;shape=mxgraph.aws3.ec2;fillColor=#F58534;gradientColor=none;" vertex="1" parent="1">
          <mxGeometry x="580" y="400" width="76.5" height="93" as="geometry" />
        </mxCell>
        <mxCell id="xrcFdg_S0BTv2oC5ESt1-43" style="edgeStyle=orthogonalEdgeStyle;rounded=0;orthogonalLoop=1;jettySize=auto;html=1;exitX=0.5;exitY=0;exitDx=0;exitDy=0;exitPerimeter=0;entryX=0.033;entryY=0.683;entryDx=0;entryDy=0;entryPerimeter=0;" edge="1" parent="1" source="xrcFdg_S0BTv2oC5ESt1-9" target="xrcFdg_S0BTv2oC5ESt1-22">
          <mxGeometry relative="1" as="geometry">
            <Array as="points">
              <mxPoint x="618" y="563" />
              <mxPoint x="1070" y="563" />
              <mxPoint x="1070" y="640" />
            </Array>
          </mxGeometry>
        </mxCell>
        <mxCell id="xrcFdg_S0BTv2oC5ESt1-61" value="Publishes events to" style="edgeLabel;html=1;align=center;verticalAlign=middle;resizable=0;points=[];" vertex="1" connectable="0" parent="xrcFdg_S0BTv2oC5ESt1-43">
          <mxGeometry x="-0.2336" y="-1" relative="1" as="geometry">
            <mxPoint as="offset" />
          </mxGeometry>
        </mxCell>
        <mxCell id="xrcFdg_S0BTv2oC5ESt1-9" value="Video Service" style="outlineConnect=0;dashed=0;verticalLabelPosition=bottom;verticalAlign=top;align=center;html=1;shape=mxgraph.aws3.ec2;fillColor=#F58534;gradientColor=none;" vertex="1" parent="1">
          <mxGeometry x="580" y="583.5" width="76.5" height="93" as="geometry" />
        </mxCell>
        <mxCell id="xrcFdg_S0BTv2oC5ESt1-10" value="Recommendation Service" style="outlineConnect=0;dashed=0;verticalLabelPosition=bottom;verticalAlign=top;align=center;html=1;shape=mxgraph.aws3.ec2;fillColor=#F58534;gradientColor=none;" vertex="1" parent="1">
          <mxGeometry x="580" y="750" width="76.5" height="93" as="geometry" />
        </mxCell>
        <mxCell id="xrcFdg_S0BTv2oC5ESt1-11" value="Video Processing Service" style="outlineConnect=0;dashed=0;verticalLabelPosition=bottom;verticalAlign=top;align=center;html=1;shape=mxgraph.aws3.ec2;fillColor=#F58534;gradientColor=none;" vertex="1" parent="1">
          <mxGeometry x="580" y="923.76" width="76.5" height="93" as="geometry" />
        </mxCell>
        <mxCell id="xrcFdg_S0BTv2oC5ESt1-12" value="CDN" style="points=[];aspect=fixed;html=1;align=center;shadow=0;dashed=0;fillColor=#FF6A00;strokeColor=none;shape=mxgraph.alibaba_cloud.cdn_content_distribution_network;" vertex="1" parent="1">
          <mxGeometry x="563.99" y="1140" width="108.51" height="90" as="geometry" />
        </mxCell>
        <mxCell id="xrcFdg_S0BTv2oC5ESt1-13" value="S3 (Video Storage)" style="outlineConnect=0;dashed=0;verticalLabelPosition=bottom;verticalAlign=top;align=center;html=1;shape=mxgraph.aws3.s3;fillColor=#E05243;gradientColor=none;" vertex="1" parent="1">
          <mxGeometry x="827.05" y="1047" width="76.5" height="93" as="geometry" />
        </mxCell>
        <mxCell id="xrcFdg_S0BTv2oC5ESt1-14" value="Video DB" style="image;aspect=fixed;html=1;points=[];align=center;fontSize=12;image=img/lib/azure2/databases/Azure_Database_PostgreSQL_Server.svg;" vertex="1" parent="1">
          <mxGeometry x="810" y="800" width="60" height="80" as="geometry" />
        </mxCell>
        <mxCell id="xrcFdg_S0BTv2oC5ESt1-15" value="User DB" style="image;aspect=fixed;html=1;points=[];align=center;fontSize=12;image=img/lib/azure2/databases/Azure_Database_PostgreSQL_Server.svg;" vertex="1" parent="1">
          <mxGeometry x="840.0000000000001" y="26.5" width="60" height="80" as="geometry" />
        </mxCell>
        <mxCell id="xrcFdg_S0BTv2oC5ESt1-20" value="" style="group" vertex="1" connectable="0" parent="1">
          <mxGeometry x="810" y="584" width="98" height="104" as="geometry" />
        </mxCell>
        <mxCell id="xrcFdg_S0BTv2oC5ESt1-18" value="" style="sketch=0;points=[[0,0,0],[0.25,0,0],[0.5,0,0],[0.75,0,0],[1,0,0],[0,1,0],[0.25,1,0],[0.5,1,0],[0.75,1,0],[1,1,0],[0,0.25,0],[0,0.5,0],[0,0.75,0],[1,0.25,0],[1,0.5,0],[1,0.75,0]];outlineConnect=0;fontColor=#232F3E;fillColor=#C925D1;strokeColor=#ffffff;dashed=0;verticalLabelPosition=bottom;verticalAlign=top;align=center;html=1;fontSize=12;fontStyle=0;aspect=fixed;shape=mxgraph.aws4.resourceIcon;resIcon=mxgraph.aws4.documentdb_with_mongodb_compatibility;" vertex="1" parent="xrcFdg_S0BTv2oC5ESt1-20">
          <mxGeometry width="78" height="78" as="geometry" />
        </mxCell>
        <mxCell id="xrcFdg_S0BTv2oC5ESt1-19" value="" style="dashed=0;outlineConnect=0;html=1;align=center;labelPosition=center;verticalLabelPosition=bottom;verticalAlign=top;shape=mxgraph.weblogos.mongodb" vertex="1" parent="xrcFdg_S0BTv2oC5ESt1-20">
          <mxGeometry x="20" y="18" width="22.08" height="46.2" as="geometry" />
        </mxCell>
        <mxCell id="xrcFdg_S0BTv2oC5ESt1-21" value="&lt;div&gt;&lt;br&gt;&lt;/div&gt;&lt;div&gt;&lt;br&gt;&lt;/div&gt;&lt;div&gt;&lt;br&gt;&lt;/div&gt;&lt;div&gt;&lt;br&gt;&lt;/div&gt;&lt;div&gt;&lt;br&gt;&lt;/div&gt;&lt;div&gt;&lt;br&gt;&lt;/div&gt;&lt;div&gt;&lt;br&gt;&lt;/div&gt;&lt;div&gt;&lt;br&gt;&lt;/div&gt;Search Index" style="points=[];aspect=fixed;html=1;align=center;shadow=0;dashed=0;fillColor=#FF6A00;strokeColor=none;shape=mxgraph.alibaba_cloud.elasticsearch;" vertex="1" parent="1">
          <mxGeometry x="827.05" y="400" width="85.9" height="93.76" as="geometry" />
        </mxCell>
        <mxCell id="xrcFdg_S0BTv2oC5ESt1-22" value="&lt;div&gt;&lt;br&gt;&lt;/div&gt;&lt;div&gt;&lt;br&gt;&lt;/div&gt;&lt;div&gt;&lt;br&gt;&lt;/div&gt;&lt;div&gt;&lt;br&gt;&lt;/div&gt;&lt;div&gt;&lt;br&gt;&lt;/div&gt;&lt;div&gt;&lt;br&gt;&lt;/div&gt;Message Queue" style="points=[];aspect=fixed;html=1;align=center;shadow=0;dashed=0;fillColor=#FF6A00;strokeColor=none;shape=mxgraph.alibaba_cloud.kafka;" vertex="1" parent="1">
          <mxGeometry x="1120" y="591" width="97.2" height="72" as="geometry" />
        </mxCell>
        <mxCell id="xrcFdg_S0BTv2oC5ESt1-24" style="edgeStyle=orthogonalEdgeStyle;rounded=0;orthogonalLoop=1;jettySize=auto;html=1;exitX=1;exitY=0.25;exitDx=0;exitDy=0;entryX=0;entryY=0.5;entryDx=0;entryDy=0;entryPerimeter=0;" edge="1" parent="1" source="xrcFdg_S0BTv2oC5ESt1-3" target="xrcFdg_S0BTv2oC5ESt1-8">
          <mxGeometry relative="1" as="geometry" />
        </mxCell>
        <mxCell id="xrcFdg_S0BTv2oC5ESt1-52" value="Routes to" style="edgeLabel;html=1;align=center;verticalAlign=middle;resizable=0;points=[];" vertex="1" connectable="0" parent="xrcFdg_S0BTv2oC5ESt1-24">
          <mxGeometry x="0.5321" relative="1" as="geometry">
            <mxPoint as="offset" />
          </mxGeometry>
        </mxCell>
        <mxCell id="xrcFdg_S0BTv2oC5ESt1-25" style="edgeStyle=orthogonalEdgeStyle;rounded=0;orthogonalLoop=1;jettySize=auto;html=1;exitX=1;exitY=0;exitDx=0;exitDy=0;entryX=0;entryY=0.5;entryDx=0;entryDy=0;entryPerimeter=0;" edge="1" parent="1" source="xrcFdg_S0BTv2oC5ESt1-3" target="xrcFdg_S0BTv2oC5ESt1-7">
          <mxGeometry relative="1" as="geometry" />
        </mxCell>
        <mxCell id="xrcFdg_S0BTv2oC5ESt1-51" value="Routes to" style="edgeLabel;html=1;align=center;verticalAlign=middle;resizable=0;points=[];" vertex="1" connectable="0" parent="xrcFdg_S0BTv2oC5ESt1-25">
          <mxGeometry x="0.5261" y="3" relative="1" as="geometry">
            <mxPoint as="offset" />
          </mxGeometry>
        </mxCell>
        <mxCell id="xrcFdg_S0BTv2oC5ESt1-26" style="edgeStyle=orthogonalEdgeStyle;rounded=0;orthogonalLoop=1;jettySize=auto;html=1;exitX=0.75;exitY=0;exitDx=0;exitDy=0;entryX=0;entryY=0.5;entryDx=0;entryDy=0;entryPerimeter=0;" edge="1" parent="1" source="xrcFdg_S0BTv2oC5ESt1-3" target="xrcFdg_S0BTv2oC5ESt1-6">
          <mxGeometry relative="1" as="geometry" />
        </mxCell>
        <mxCell id="xrcFdg_S0BTv2oC5ESt1-45" value="Routes to" style="edgeLabel;html=1;align=center;verticalAlign=middle;resizable=0;points=[];" vertex="1" connectable="0" parent="xrcFdg_S0BTv2oC5ESt1-26">
          <mxGeometry x="0.5484" y="-8" relative="1" as="geometry">
            <mxPoint as="offset" />
          </mxGeometry>
        </mxCell>
        <mxCell id="xrcFdg_S0BTv2oC5ESt1-27" style="edgeStyle=orthogonalEdgeStyle;rounded=0;orthogonalLoop=1;jettySize=auto;html=1;exitX=1;exitY=0.75;exitDx=0;exitDy=0;entryX=0;entryY=0.5;entryDx=0;entryDy=0;entryPerimeter=0;" edge="1" parent="1" source="xrcFdg_S0BTv2oC5ESt1-3" target="xrcFdg_S0BTv2oC5ESt1-10">
          <mxGeometry relative="1" as="geometry" />
        </mxCell>
        <mxCell id="xrcFdg_S0BTv2oC5ESt1-54" value="Routes to" style="edgeLabel;html=1;align=center;verticalAlign=middle;resizable=0;points=[];" vertex="1" connectable="0" parent="xrcFdg_S0BTv2oC5ESt1-27">
          <mxGeometry x="0.0176" y="-2" relative="1" as="geometry">
            <mxPoint as="offset" />
          </mxGeometry>
        </mxCell>
        <mxCell id="xrcFdg_S0BTv2oC5ESt1-28" style="edgeStyle=orthogonalEdgeStyle;rounded=0;orthogonalLoop=1;jettySize=auto;html=1;exitX=1;exitY=1;exitDx=0;exitDy=0;entryX=0;entryY=0.5;entryDx=0;entryDy=0;entryPerimeter=0;" edge="1" parent="1" source="xrcFdg_S0BTv2oC5ESt1-3" target="xrcFdg_S0BTv2oC5ESt1-11">
          <mxGeometry relative="1" as="geometry" />
        </mxCell>
        <mxCell id="xrcFdg_S0BTv2oC5ESt1-55" value="Routes to" style="edgeLabel;html=1;align=center;verticalAlign=middle;resizable=0;points=[];" vertex="1" connectable="0" parent="xrcFdg_S0BTv2oC5ESt1-28">
          <mxGeometry x="0.5459" relative="1" as="geometry">
            <mxPoint as="offset" />
          </mxGeometry>
        </mxCell>
        <mxCell id="xrcFdg_S0BTv2oC5ESt1-34" style="edgeStyle=orthogonalEdgeStyle;rounded=0;orthogonalLoop=1;jettySize=auto;html=1;exitX=1;exitY=0.79;exitDx=0;exitDy=0;exitPerimeter=0;entryX=0.512;entryY=0.077;entryDx=0;entryDy=0;entryPerimeter=0;" edge="1" parent="1" source="xrcFdg_S0BTv2oC5ESt1-8" target="xrcFdg_S0BTv2oC5ESt1-22">
          <mxGeometry relative="1" as="geometry">
            <Array as="points">
              <mxPoint x="656" y="540" />
              <mxPoint x="1170" y="540" />
            </Array>
          </mxGeometry>
        </mxCell>
        <mxCell id="xrcFdg_S0BTv2oC5ESt1-62" value="Consumes from" style="edgeLabel;html=1;align=center;verticalAlign=middle;resizable=0;points=[];" vertex="1" connectable="0" parent="xrcFdg_S0BTv2oC5ESt1-34">
          <mxGeometry x="0.1125" y="2" relative="1" as="geometry">
            <mxPoint as="offset" />
          </mxGeometry>
        </mxCell>
        <mxCell id="xrcFdg_S0BTv2oC5ESt1-35" style="edgeStyle=orthogonalEdgeStyle;rounded=0;orthogonalLoop=1;jettySize=auto;html=1;exitX=1;exitY=0.5;exitDx=0;exitDy=0;exitPerimeter=0;entryX=0;entryY=0.5;entryDx=0;entryDy=0;entryPerimeter=0;" edge="1" parent="1" source="xrcFdg_S0BTv2oC5ESt1-11" target="xrcFdg_S0BTv2oC5ESt1-13">
          <mxGeometry relative="1" as="geometry" />
        </mxCell>
        <mxCell id="xrcFdg_S0BTv2oC5ESt1-50" value="Reads / Writes&amp;nbsp;&lt;div&gt;(Video Processing&amp;nbsp;&lt;/div&gt;&lt;div&gt;Pipeline)&lt;/div&gt;" style="edgeLabel;html=1;align=center;verticalAlign=middle;resizable=0;points=[];" vertex="1" connectable="0" parent="xrcFdg_S0BTv2oC5ESt1-35">
          <mxGeometry x="-0.1248" y="-5" relative="1" as="geometry">
            <mxPoint x="23" y="-1" as="offset" />
          </mxGeometry>
        </mxCell>
        <mxCell id="xrcFdg_S0BTv2oC5ESt1-36" style="edgeStyle=orthogonalEdgeStyle;rounded=0;orthogonalLoop=1;jettySize=auto;html=1;exitX=0;exitY=0.79;exitDx=0;exitDy=0;exitPerimeter=0;entryX=0.676;entryY=0.442;entryDx=0;entryDy=0;entryPerimeter=0;shape=link;" edge="1" parent="1" source="xrcFdg_S0BTv2oC5ESt1-13" target="xrcFdg_S0BTv2oC5ESt1-12">
          <mxGeometry relative="1" as="geometry" />
        </mxCell>
        <mxCell id="xrcFdg_S0BTv2oC5ESt1-49" value="Pull video from" style="edgeLabel;html=1;align=center;verticalAlign=middle;resizable=0;points=[];" vertex="1" connectable="0" parent="xrcFdg_S0BTv2oC5ESt1-36">
          <mxGeometry x="0.3017" y="3" relative="1" as="geometry">
            <mxPoint as="offset" />
          </mxGeometry>
        </mxCell>
        <mxCell id="xrcFdg_S0BTv2oC5ESt1-37" style="edgeStyle=orthogonalEdgeStyle;rounded=0;orthogonalLoop=1;jettySize=auto;html=1;exitX=1;exitY=0.21;exitDx=0;exitDy=0;exitPerimeter=0;entryX=-0.008;entryY=0.828;entryDx=0;entryDy=0;entryPerimeter=0;" edge="1" parent="1" source="xrcFdg_S0BTv2oC5ESt1-11" target="xrcFdg_S0BTv2oC5ESt1-14">
          <mxGeometry relative="1" as="geometry" />
        </mxCell>
        <mxCell id="xrcFdg_S0BTv2oC5ESt1-56" value="Updates&amp;nbsp;&lt;div&gt;status in&lt;/div&gt;" style="edgeLabel;html=1;align=center;verticalAlign=middle;resizable=0;points=[];" vertex="1" connectable="0" parent="xrcFdg_S0BTv2oC5ESt1-37">
          <mxGeometry x="0.019" y="1" relative="1" as="geometry">
            <mxPoint as="offset" />
          </mxGeometry>
        </mxCell>
        <mxCell id="xrcFdg_S0BTv2oC5ESt1-38" style="edgeStyle=orthogonalEdgeStyle;rounded=0;orthogonalLoop=1;jettySize=auto;html=1;exitX=1;exitY=0.21;exitDx=0;exitDy=0;exitPerimeter=0;entryX=0.512;entryY=1.006;entryDx=0;entryDy=0;entryPerimeter=0;" edge="1" parent="1" source="xrcFdg_S0BTv2oC5ESt1-11" target="xrcFdg_S0BTv2oC5ESt1-22">
          <mxGeometry relative="1" as="geometry" />
        </mxCell>
        <mxCell id="xrcFdg_S0BTv2oC5ESt1-57" value="Consumes from" style="edgeLabel;html=1;align=center;verticalAlign=middle;resizable=0;points=[];" vertex="1" connectable="0" parent="xrcFdg_S0BTv2oC5ESt1-38">
          <mxGeometry x="-0.2188" y="2" relative="1" as="geometry">
            <mxPoint as="offset" />
          </mxGeometry>
        </mxCell>
        <mxCell id="xrcFdg_S0BTv2oC5ESt1-40" style="edgeStyle=orthogonalEdgeStyle;rounded=0;orthogonalLoop=1;jettySize=auto;html=1;exitX=1;exitY=0.5;exitDx=0;exitDy=0;exitPerimeter=0;entryX=0.008;entryY=0.257;entryDx=0;entryDy=0;entryPerimeter=0;" edge="1" parent="1" source="xrcFdg_S0BTv2oC5ESt1-9" target="xrcFdg_S0BTv2oC5ESt1-14">
          <mxGeometry relative="1" as="geometry" />
        </mxCell>
        <mxCell id="xrcFdg_S0BTv2oC5ESt1-59" value="Reads / Writes&amp;nbsp;&lt;div&gt;metadata&lt;/div&gt;" style="edgeLabel;html=1;align=center;verticalAlign=middle;resizable=0;points=[];" vertex="1" connectable="0" parent="xrcFdg_S0BTv2oC5ESt1-40">
          <mxGeometry x="0.0076" y="-1" relative="1" as="geometry">
            <mxPoint as="offset" />
          </mxGeometry>
        </mxCell>
        <mxCell id="xrcFdg_S0BTv2oC5ESt1-41" style="edgeStyle=orthogonalEdgeStyle;rounded=0;orthogonalLoop=1;jettySize=auto;html=1;exitX=1;exitY=0.5;exitDx=0;exitDy=0;exitPerimeter=0;entryX=0.08;entryY=0.584;entryDx=0;entryDy=0;entryPerimeter=0;" edge="1" parent="1" source="xrcFdg_S0BTv2oC5ESt1-10" target="xrcFdg_S0BTv2oC5ESt1-14">
          <mxGeometry relative="1" as="geometry">
            <Array as="points">
              <mxPoint x="700" y="797" />
              <mxPoint x="700" y="847" />
            </Array>
          </mxGeometry>
        </mxCell>
        <mxCell id="xrcFdg_S0BTv2oC5ESt1-58" value="Reads from" style="edgeLabel;html=1;align=center;verticalAlign=middle;resizable=0;points=[];" vertex="1" connectable="0" parent="xrcFdg_S0BTv2oC5ESt1-41">
          <mxGeometry x="-0.2227" y="1" relative="1" as="geometry">
            <mxPoint as="offset" />
          </mxGeometry>
        </mxCell>
        <mxCell id="xrcFdg_S0BTv2oC5ESt1-42" style="edgeStyle=orthogonalEdgeStyle;rounded=0;orthogonalLoop=1;jettySize=auto;html=1;exitX=1;exitY=0.21;exitDx=0;exitDy=0;exitPerimeter=0;entryX=0;entryY=0.25;entryDx=0;entryDy=0;entryPerimeter=0;" edge="1" parent="1" source="xrcFdg_S0BTv2oC5ESt1-9" target="xrcFdg_S0BTv2oC5ESt1-18">
          <mxGeometry relative="1" as="geometry" />
        </mxCell>
        <mxCell id="xrcFdg_S0BTv2oC5ESt1-60" value="Reads / Writes&amp;nbsp;&lt;div&gt;Comments and &lt;br&gt;Transcriptions&lt;/div&gt;" style="edgeLabel;html=1;align=center;verticalAlign=middle;resizable=0;points=[];" vertex="1" connectable="0" parent="xrcFdg_S0BTv2oC5ESt1-42">
          <mxGeometry x="-0.249" relative="1" as="geometry">
            <mxPoint as="offset" />
          </mxGeometry>
        </mxCell>
        <mxCell id="xrcFdg_S0BTv2oC5ESt1-44" style="edgeStyle=orthogonalEdgeStyle;rounded=0;orthogonalLoop=1;jettySize=auto;html=1;exitX=1;exitY=0.5;exitDx=0;exitDy=0;exitPerimeter=0;entryX=0.691;entryY=0.077;entryDx=0;entryDy=0;entryPerimeter=0;" edge="1" parent="1" source="xrcFdg_S0BTv2oC5ESt1-7" target="xrcFdg_S0BTv2oC5ESt1-22">
          <mxGeometry relative="1" as="geometry" />
        </mxCell>
        <mxCell id="xrcFdg_S0BTv2oC5ESt1-64" value="Consumes from" style="edgeLabel;html=1;align=center;verticalAlign=middle;resizable=0;points=[];" vertex="1" connectable="0" parent="xrcFdg_S0BTv2oC5ESt1-44">
          <mxGeometry x="-0.3225" y="1" relative="1" as="geometry">
            <mxPoint as="offset" />
          </mxGeometry>
        </mxCell>
        <mxCell id="xrcFdg_S0BTv2oC5ESt1-47" style="edgeStyle=orthogonalEdgeStyle;rounded=0;orthogonalLoop=1;jettySize=auto;html=1;exitX=1;exitY=0.71;exitDx=0;exitDy=0;exitPerimeter=0;entryX=-0.007;entryY=0.943;entryDx=0;entryDy=0;entryPerimeter=0;" edge="1" parent="1" source="xrcFdg_S0BTv2oC5ESt1-1" target="xrcFdg_S0BTv2oC5ESt1-12">
          <mxGeometry relative="1" as="geometry">
            <mxPoint x="400" y="1223" as="targetPoint" />
            <Array as="points">
              <mxPoint x="138" y="1225" />
            </Array>
          </mxGeometry>
        </mxCell>
        <mxCell id="xrcFdg_S0BTv2oC5ESt1-48" value="Stream video from" style="edgeLabel;html=1;align=center;verticalAlign=middle;resizable=0;points=[];" vertex="1" connectable="0" parent="xrcFdg_S0BTv2oC5ESt1-47">
          <mxGeometry x="0.4063" relative="1" as="geometry">
            <mxPoint x="1" as="offset" />
          </mxGeometry>
        </mxCell>
        <mxCell id="xrcFdg_S0BTv2oC5ESt1-66" value="Cache" style="image;sketch=0;aspect=fixed;html=1;points=[];align=center;fontSize=12;image=img/lib/mscae/Cache_Redis_Product.svg;" vertex="1" parent="1">
          <mxGeometry x="730" y="320" width="61.9" height="52" as="geometry" />
        </mxCell>
        <mxCell id="xrcFdg_S0BTv2oC5ESt1-69" value="Cache" style="image;sketch=0;aspect=fixed;html=1;points=[];align=center;fontSize=12;image=img/lib/mscae/Cache_Redis_Product.svg;" vertex="1" parent="1">
          <mxGeometry x="460" y="850" width="61.9" height="52" as="geometry" />
        </mxCell>
        <mxCell id="xrcFdg_S0BTv2oC5ESt1-70" style="edgeStyle=orthogonalEdgeStyle;rounded=0;orthogonalLoop=1;jettySize=auto;html=1;exitX=0;exitY=0.79;exitDx=0;exitDy=0;exitPerimeter=0;entryX=0.487;entryY=0.044;entryDx=0;entryDy=0;entryPerimeter=0;" edge="1" parent="1" source="xrcFdg_S0BTv2oC5ESt1-10" target="xrcFdg_S0BTv2oC5ESt1-69">
          <mxGeometry relative="1" as="geometry" />
        </mxCell>
        <mxCell id="xrcFdg_S0BTv2oC5ESt1-71" value="Reads / Writes" style="edgeLabel;html=1;align=center;verticalAlign=middle;resizable=0;points=[];" vertex="1" connectable="0" parent="xrcFdg_S0BTv2oC5ESt1-70">
          <mxGeometry x="0.0767" y="-2" relative="1" as="geometry">
            <mxPoint x="14" y="9" as="offset" />
          </mxGeometry>
        </mxCell>
        <mxCell id="xrcFdg_S0BTv2oC5ESt1-72" value="" style="endArrow=none;dashed=1;html=1;rounded=0;entryX=0.928;entryY=0.462;entryDx=0;entryDy=0;entryPerimeter=0;exitX=1.005;exitY=0.614;exitDx=0;exitDy=0;exitPerimeter=0;" edge="1" parent="1" source="xrcFdg_S0BTv2oC5ESt1-14" target="xrcFdg_S0BTv2oC5ESt1-21">
          <mxGeometry width="50" height="50" relative="1" as="geometry">
            <mxPoint x="740" y="690" as="sourcePoint" />
            <mxPoint x="790" y="640" as="targetPoint" />
            <Array as="points">
              <mxPoint x="1030" y="849" />
              <mxPoint x="1030" y="443" />
            </Array>
          </mxGeometry>
        </mxCell>
        <mxCell id="xrcFdg_S0BTv2oC5ESt1-73" value="" style="endArrow=none;dashed=1;html=1;rounded=0;entryX=0.899;entryY=0.551;entryDx=0;entryDy=0;entryPerimeter=0;exitX=1;exitY=0.5;exitDx=0;exitDy=0;exitPerimeter=0;" edge="1" parent="1" source="xrcFdg_S0BTv2oC5ESt1-18" target="xrcFdg_S0BTv2oC5ESt1-21">
          <mxGeometry width="50" height="50" relative="1" as="geometry">
            <mxPoint x="880" y="859" as="sourcePoint" />
            <mxPoint x="917" y="453" as="targetPoint" />
            <Array as="points">
              <mxPoint x="1040" y="623" />
              <mxPoint x="1040" y="453" />
            </Array>
          </mxGeometry>
        </mxCell>
        <mxCell id="xrcFdg_S0BTv2oC5ESt1-75" value="Auto Scaling group &amp;amp; LB" style="points=[[0,0],[0.25,0],[0.5,0],[0.75,0],[1,0],[1,0.25],[1,0.5],[1,0.75],[1,1],[0.75,1],[0.5,1],[0.25,1],[0,1],[0,0.75],[0,0.5],[0,0.25]];outlineConnect=0;gradientColor=none;html=1;whiteSpace=wrap;fontSize=12;fontStyle=0;container=1;pointerEvents=0;collapsible=0;recursiveResize=0;shape=mxgraph.aws4.groupCenter;grIcon=mxgraph.aws4.group_auto_scaling_group;grStroke=1;strokeColor=#D86613;fillColor=none;verticalAlign=top;align=center;fontColor=#D86613;dashed=1;spacingTop=25;" vertex="1" parent="1">
          <mxGeometry x="534" y="-25" width="162" height="162" as="geometry" />
        </mxCell>
        <mxCell id="xrcFdg_S0BTv2oC5ESt1-77" value="Auto Scaling group &amp;amp; LB" style="points=[[0,0],[0.25,0],[0.5,0],[0.75,0],[1,0],[1,0.25],[1,0.5],[1,0.75],[1,1],[0.75,1],[0.5,1],[0.25,1],[0,1],[0,0.75],[0,0.5],[0,0.25]];outlineConnect=0;gradientColor=none;html=1;whiteSpace=wrap;fontSize=12;fontStyle=0;container=1;pointerEvents=0;collapsible=0;recursiveResize=0;shape=mxgraph.aws4.groupCenter;grIcon=mxgraph.aws4.group_auto_scaling_group;grStroke=1;strokeColor=#D86613;fillColor=none;verticalAlign=top;align=center;fontColor=#D86613;dashed=1;spacingTop=25;" vertex="1" parent="1">
          <mxGeometry x="538" y="166" width="162" height="162" as="geometry" />
        </mxCell>
        <mxCell id="xrcFdg_S0BTv2oC5ESt1-78" value="Auto Scaling group &amp;amp; LB" style="points=[[0,0],[0.25,0],[0.5,0],[0.75,0],[1,0],[1,0.25],[1,0.5],[1,0.75],[1,1],[0.75,1],[0.5,1],[0.25,1],[0,1],[0,0.75],[0,0.5],[0,0.25]];outlineConnect=0;gradientColor=none;html=1;whiteSpace=wrap;fontSize=12;fontStyle=0;container=1;pointerEvents=0;collapsible=0;recursiveResize=0;shape=mxgraph.aws4.groupCenter;grIcon=mxgraph.aws4.group_auto_scaling_group;grStroke=1;strokeColor=#D86613;fillColor=none;verticalAlign=top;align=center;fontColor=#D86613;dashed=1;spacingTop=25;" vertex="1" parent="1">
          <mxGeometry x="535.24" y="357" width="162" height="162" as="geometry" />
        </mxCell>
        <mxCell id="xrcFdg_S0BTv2oC5ESt1-84" value="Auto Scaling group &amp;amp; LB" style="points=[[0,0],[0.25,0],[0.5,0],[0.75,0],[1,0],[1,0.25],[1,0.5],[1,0.75],[1,1],[0.75,1],[0.5,1],[0.25,1],[0,1],[0,0.75],[0,0.5],[0,0.25]];outlineConnect=0;gradientColor=none;html=1;whiteSpace=wrap;fontSize=12;fontStyle=0;container=1;pointerEvents=0;collapsible=0;recursiveResize=0;shape=mxgraph.aws4.groupCenter;grIcon=mxgraph.aws4.group_auto_scaling_group;grStroke=1;strokeColor=#D86613;fillColor=none;verticalAlign=top;align=center;fontColor=#D86613;dashed=1;spacingTop=25;" vertex="1" parent="1">
          <mxGeometry x="536.24" y="880" width="162" height="162" as="geometry" />
        </mxCell>
      </root>
    </mxGraphModel>
  </diagram>
</mxfile>
